<?xml version="1.0"?>
<svg xmlns="http://www.w3.org/2000/svg" viewBox="0 0 64 64" width="512" height="512">
    <g id="Gear-People-share">
        <circle cx="32" cy="22" r="7"/>
        <path d="M27,60h4V49a1,1,0,0,1,2,0V60h4V46H27Z"/>
        <path d="M44.12,26.65a1.007,1.007,0,0,1,.94-.65H50V18H45.06a1.007,1.007,0,0,1-.94-.65c-.08-.23-.17-.45-.26-.67a1.015,1.015,0,0,1,.21-1.1l3.49-3.48L41.9,6.44,38.42,9.93a1.015,1.015,0,0,1-1.1.21c-.22-.09-.44-.18-.67-.26A1.007,1.007,0,0,1,36,8.94V4H28V8.94a1.007,1.007,0,0,1-.65.94c-.23.08-.45.17-.67.26a1.015,1.015,0,0,1-1.1-.21L22.1,6.44,16.44,12.1l3.49,3.48a1.015,1.015,0,0,1,.21,1.1c-.09.22-.18.44-.26.67a1.007,1.007,0,0,1-.94.65H14v8h4.94a1.007,1.007,0,0,1,.94.65c.08.23.17.45.26.67a1.015,1.015,0,0,1-.21,1.1L16.44,31.9,21,36.46V31a3.009,3.009,0,0,1,3-3,1,1,0,0,1,0,2,1,1,0,0,0-1,1V44h2V35a1,1,0,0,1,2,0v9H37V35a1,1,0,0,1,2,0v9h2V31a1,1,0,0,0-1-1,1,1,0,0,1,0-2,3.009,3.009,0,0,1,3,3v5.46l4.56-4.56-3.49-3.48a1.015,1.015,0,0,1-.21-1.1C43.95,27.1,44.04,26.88,44.12,26.65ZM32,31a9,9,0,1,1,9-9A9.014,9.014,0,0,1,32,31Z"/>
        <path d="M5,4H3A1,1,0,0,1,3,2H5A1,1,0,0,1,5,4Z"/>
        <path d="M19.06,6.65,17.65,8.06,13.59,4H8A1,1,0,0,1,8,2h6a1.033,1.033,0,0,1,.71.29Z"/>
        <path d="M5,22H3a1,1,0,0,1,0-2H5a1,1,0,0,1,0,2Z"/>
        <path d="M12,20v2H8a1,1,0,0,1,0-2Z"/>
        <path d="M5,45H3a1,1,0,0,1,0-2H5a1,1,0,0,1,0,2Z"/>
        <path d="M18.57,36.86l-7.86,7.85A.99.99,0,0,1,10,45H8a1,1,0,0,1,0-2H9.59l7.56-7.56Z"/>
        <path d="M61,4H59a1,1,0,0,1,0-2h2a1,1,0,0,1,0,2Z"/>
        <path d="M57,3a1,1,0,0,1-1,1H50.41L46.35,8.06,44.94,6.65l4.35-4.36A1.033,1.033,0,0,1,50,2h6A1,1,0,0,1,57,3Z"/>
        <path d="M61,22H59a1,1,0,0,1,0-2h2a1,1,0,0,1,0,2Z"/>
        <path d="M57,21a1,1,0,0,1-1,1H52V20h4A1,1,0,0,1,57,21Z"/>
        <path d="M61,45H59a1,1,0,0,1,0-2h2a1,1,0,0,1,0,2Z"/>
        <path d="M57,44a1,1,0,0,1-1,1H54a1.033,1.033,0,0,1-.71-.29l-7.85-7.85,1.41-1.42L54.41,43H56A1,1,0,0,1,57,44Z"/>
    </g>
</svg>
