<?xml version="1.0" standalone="no"?>
<!DOCTYPE svg PUBLIC "-//W3C//DTD SVG 20010904//EN"
 "http://www.w3.org/TR/2001/REC-SVG-20010904/DTD/svg10.dtd">
<svg version="1.0" xmlns="http://www.w3.org/2000/svg"
 width="192.000000pt" height="192.000000pt" viewBox="0 0 192.000000 192.000000"
 preserveAspectRatio="xMidYMid meet">
<metadata>
Created by potrace 1.11, written by Peter Selinger 2001-2013
</metadata>
<g transform="translate(0.000000,192.000000) scale(0.100000,-0.100000)"
fill="#000000" stroke="none">
<path d="M430 1744 c-180 -31 -305 -97 -351 -185 -26 -53 -58 -172 -66 -254
-15 -135 -7 -548 12 -690 29 -213 46 -299 70 -345 54 -107 216 -180 295 -134
44 27 48 56 14 102 -81 104 -98 182 -80 362 4 36 12 90 20 120 11 45 14 51 19
30 3 -14 20 -88 38 -165 18 -77 34 -144 35 -150 1 -5 7 -31 13 -57 6 -26 14
-78 17 -115 7 -87 10 -102 24 -138 28 -74 105 -107 242 -104 166 3 238 69 238
216 l0 38 97 -3 c54 -2 99 -4 100 -5 0 -1 4 -28 7 -60 4 -32 11 -68 15 -80 19
-47 69 -85 136 -102 50 -12 167 -6 223 11 86 27 115 76 125 214 3 36 10 77 16
93 6 15 9 27 7 27 -5 0 89 253 103 277 8 14 11 8 11 -32 4 -208 6 -215 55
-220 56 -7 62 38 40 335 -4 63 -28 194 -65 355 -11 50 -22 101 -25 115 -6 44
-45 131 -81 186 -112 169 -307 250 -617 258 -61 2 -85 8 -148 38 -41 20 -105
44 -144 53 -89 22 -295 26 -395 9z"/>
</g>
</svg>
